<?xml version="1.0" encoding="iso-8859-1"?>
<svg xmlns="http://www.w3.org/2000/svg" xmlns:xlink="http://www.w3.org/1999/xlink" version="1.1" viewBox="0 0 363.75 363.75" enable-background="new 0 0 363.75 363.75" width="512px" height="512px">
  <path d="m181.875,0l-135,101.25v262.5h110v-80h50v80h110v-262.5l-135-101.25zm55,203.75h50v50h-50v-50zm0-30v-50h50v50h-50zm-160,80v-50h50v50h-50zm0-80v-50h50v50h-50zm80-50h50v50h-50v-50zm100-30h-150l75-56.25 75,56.25zm-130,240h-50v-50h50v50zm30-80v-50h50v50h-50zm80,80v-50h50v50h-50z" fill="#f44336"/>
</svg>
