<?xml version="1.0" standalone="no"?>
<!DOCTYPE svg PUBLIC "-//W3C//DTD SVG 20010904//EN"
 "http://www.w3.org/TR/2001/REC-SVG-20010904/DTD/svg10.dtd">
<svg version="1.0" xmlns="http://www.w3.org/2000/svg"
 width="1961.000000pt" height="976.000000pt" viewBox="0 0 1961.000000 976.000000"
 preserveAspectRatio="xMidYMid meet">
<metadata>
Created by potrace 1.13, written by Peter Selinger 2001-2015
</metadata>
<g transform="translate(0.000000,976.000000) scale(0.100000,-0.100000)"
fill="#000000" stroke="none">
<path d="M7240 8073 c-375 -7 -850 -36 -1145 -69 -530 -59 -1007 -190 -1550
-423 -339 -146 -1038 -541 -1253 -708 -37 -28 -106 -72 -153 -98 -216 -115
-716 -475 -660 -475 27 0 231 93 371 168 179 97 312 179 383 236 30 25 80 55
113 69 32 13 178 91 324 174 456 258 684 370 1005 491 682 256 1283 355 2465
403 326 13 1381 7 1660 -10 675 -42 1139 -88 1765 -177 1207 -170 2215 -402
2960 -681 110 -41 232 -81 270 -89 49 -11 186 -18 465 -24 430 -9 462 -12
1125 -100 444 -59 627 -79 800 -87 l130 -6 -28 30 c-81 87 -261 137 -617 173
-58 6 -199 24 -315 40 -392 55 -582 70 -1140 90 -404 15 -419 17 -631 93 -606
218 -1432 450 -2174 611 -568 123 -1211 225 -1800 286 -657 67 -1559 99 -2370
83z"/>
<path d="M7752 7580 c-117 -55 -233 -200 -308 -385 -107 -261 -50 -376 202
-404 49 -6 383 -15 742 -21 360 -6 972 -19 1360 -30 389 -10 835 -21 992 -25
157 -3 452 -13 655 -22 700 -29 1030 -7 1205 82 43 22 98 71 89 79 -2 2 -89
61 -194 131 -211 142 -292 182 -600 297 -238 89 -251 93 -259 73 -9 -23 359
-236 485 -280 23 -8 84 -49 135 -90 l92 -74 -11 -37 -11 -36 -155 6 c-86 4
-1081 29 -2211 56 -1130 27 -2119 52 -2197 56 l-141 6 -8 86 c-12 155 22 264
120 385 67 81 93 118 106 151 13 35 -7 35 -88 -4z"/>
<path d="M17086 6545 c7 -17 91 -86 264 -215 159 -119 304 -264 348 -347 104
-197 37 -349 -185 -422 -87 -28 -269 -54 -388 -55 -134 -1 -152 9 -350 203
-88 86 -199 187 -245 224 -296 239 -609 382 -948 432 -126 19 -391 21 -532 5
-52 -6 -165 -15 -250 -20 -137 -7 -165 -11 -241 -39 -220 -81 -421 -261 -508
-453 -56 -125 -78 -307 -47 -383 13 -30 60 -67 69 -54 2 2 22 50 46 106 56
133 122 231 195 290 38 31 63 60 71 82 29 87 237 193 472 240 411 84 888 27
1238 -147 163 -80 348 -227 401 -318 15 -25 32 -78 40 -126 20 -114 41 -185
63 -207 37 -37 328 -59 544 -42 341 28 547 99 683 235 94 94 118 152 118 286
0 168 -59 288 -218 445 -113 111 -223 183 -360 236 -136 52 -292 77 -280 44z"/>
<path d="M3625 6203 c-59 -9 -209 -90 -264 -144 l-55 -51 1 -67 c2 -93 19
-126 107 -206 119 -106 133 -149 67 -208 -73 -66 -156 -72 -208 -16 -34 37
-74 59 -107 59 -14 0 -57 -12 -96 -26 l-71 -27 3 -66 3 -66 60 -33 60 -33 125
5 c143 5 202 20 309 77 151 81 191 134 191 252 0 65 -1 69 -47 125 -25 31 -58
62 -73 68 -14 6 -43 31 -63 55 -28 33 -37 51 -37 80 0 36 2 38 56 59 l56 21
81 -32 c93 -36 127 -34 220 9 l57 27 -21 43 c-14 29 -36 51 -68 70 -41 24 -56
27 -151 28 -58 1 -118 0 -135 -3z"/>
<path d="M5155 6200 c-134 -9 -200 -36 -283 -114 -63 -59 -86 -108 -87 -183 0
-38 5 -67 13 -75 9 -10 64 -14 201 -16 l189 -3 91 145 c86 138 91 149 91 201
l0 55 -57 -2 c-32 0 -103 -4 -158 -8z m-11 -99 c14 -22 -17 -115 -49 -149 -29
-33 -38 -36 -86 -37 l-54 0 2 42 c2 50 25 97 57 118 19 13 62 25 118 34 4 1 9
-3 12 -8z"/>
<path d="M7680 6192 l-85 -3 -56 -92 c-31 -51 -131 -225 -223 -388 -131 -233
-166 -303 -166 -332 l0 -37 94 0 94 0 76 144 c71 133 115 196 138 196 21 0 48
-112 56 -240 l7 -95 123 -3 c67 -1 122 1 122 5 0 4 -9 75 -20 157 -30 224 -41
197 103 264 174 83 217 125 237 232 15 77 6 100 -60 153 l-58 47 -148 -2 c-82
-1 -187 -4 -234 -6z m262 -190 l23 -23 -21 -37 c-31 -56 -94 -83 -205 -90
l-90 -5 6 39 c4 21 23 63 42 92 l34 54 94 -4 c82 -3 97 -6 117 -26z"/>
<path d="M10636 6178 c-8 -13 -109 -186 -224 -386 -170 -293 -211 -370 -213
-405 l-3 -42 79 1 c44 0 90 5 102 12 13 7 62 89 123 206 99 187 161 285 188
294 19 6 84 -142 144 -332 44 -142 56 -170 76 -177 37 -14 150 -11 181 6 34
17 77 80 156 230 98 185 226 408 256 446 30 39 76 145 66 155 -3 3 -54 3 -114
-1 l-109 -7 -116 -207 c-64 -113 -124 -230 -134 -258 -10 -29 -22 -53 -26 -53
-20 0 -110 218 -147 356 -12 43 -31 100 -42 125 -21 46 -21 46 -82 53 -113 12
-145 8 -161 -16z"/>
<path d="M5912 6178 c-17 -22 -52 -96 -52 -111 0 -9 24 -18 70 -27 39 -7 73
-17 76 -21 2 -4 -72 -144 -165 -311 -93 -167 -171 -316 -173 -333 l-3 -30 99
0 98 0 197 342 196 343 51 0 c28 0 79 3 114 7 l62 6 24 51 c13 28 24 61 24 74
l0 22 -304 0 c-231 0 -306 -3 -314 -12z"/>
<path d="M6993 6183 l-273 -3 -26 -52 c-50 -100 -175 -302 -195 -316 -10 -7
-19 -22 -19 -32 0 -31 -33 -99 -115 -235 -54 -91 -78 -141 -79 -165 l-1 -35
300 0 300 0 32 60 c18 33 33 65 33 71 0 8 -55 13 -180 16 -98 2 -182 7 -185
10 -12 11 15 84 54 148 47 79 45 79 291 79 l176 1 37 69 c20 37 37 71 37 75 0
3 -85 6 -190 6 -104 0 -190 2 -190 4 0 3 12 37 26 75 l26 71 187 1 c117 0 199
5 220 12 43 15 69 50 77 105 l7 42 -39 -2 c-22 -2 -162 -4 -311 -5z"/>
<path d="M8497 6153 c-162 -260 -430 -755 -425 -785 l3 -23 296 -3 297 -2 22
37 c12 21 28 55 36 76 l13 37 -77 0 c-42 0 -128 3 -189 7 -110 6 -113 7 -113
30 0 14 6 23 15 23 9 0 32 34 57 84 l42 85 190 3 c210 3 237 10 267 63 9 17
20 44 24 61 l6 32 -185 7 c-212 8 -208 6 -160 95 l26 47 126 6 c70 4 166 7
214 7 l88 0 25 39 c14 21 28 55 32 75 l6 36 -307 0 -306 0 -23 -37z"/>
<path d="M9470 6183 l-176 -3 -28 -66 c-16 -35 -27 -67 -25 -69 3 -2 79 -8
169 -12 l165 -9 -70 -70 c-67 -67 -307 -281 -482 -431 -46 -40 -104 -84 -128
-99 -57 -33 -59 -62 -5 -82 31 -11 557 -7 586 4 49 20 81 60 86 102 l4 42
-117 0 c-203 0 -221 12 -138 97 62 64 363 317 530 447 108 83 138 115 139 144
0 12 -32 13 -510 5z"/>
<path d="M10208 6172 l-88 -15 -10 -36 c-14 -54 -95 -207 -233 -438 -149 -250
-167 -284 -167 -318 l0 -26 92 3 93 3 75 135 c42 74 120 214 174 310 54 96
124 215 157 263 32 49 59 92 59 97 0 15 -31 40 -48 39 -9 -1 -56 -8 -104 -17z"/>
<path d="M11864 6183 c-39 -4 -41 -7 -72 -69 -18 -36 -114 -214 -213 -396
-111 -203 -179 -338 -177 -351 3 -20 9 -22 90 -25 102 -3 86 -18 198 185 40
72 84 146 99 163 l26 31 150 2 c184 2 225 -4 225 -38 0 -13 -10 -32 -23 -42
-37 -29 -137 -225 -137 -267 l0 -36 93 0 93 0 232 413 c128 227 232 416 232
420 0 4 -47 7 -103 7 l-104 0 -54 -100 c-103 -193 -115 -200 -333 -200 l-157
0 6 38 c4 20 26 71 50 112 23 41 45 84 48 95 3 11 8 30 12 43 6 21 5 22 -67
20 -40 -1 -91 -3 -114 -5z"/>
<path d="M13313 6171 c-23 -11 -46 -28 -52 -39 -6 -11 -39 -39 -73 -62 -74
-49 -563 -495 -686 -625 l-84 -90 48 -8 c55 -8 137 -1 168 15 12 6 42 34 68
63 66 73 104 87 264 93 73 2 175 1 228 -3 l96 -7 -1 -71 c-1 -63 1 -73 22 -90
20 -16 36 -18 101 -15 106 4 114 13 111 121 -3 83 12 488 23 650 l7 87 -99 0
c-75 0 -109 -5 -141 -19z m-9 -323 c-3 -51 -7 -112 -10 -135 l-5 -43 -130 0
c-83 0 -129 4 -129 10 0 28 36 72 121 150 153 141 161 142 153 18z"/>
<path d="M4166 6148 c-13 -19 -26 -50 -28 -73 l-3 -40 73 -11 c39 -6 75 -13
78 -17 10 -10 -68 -148 -93 -164 -13 -8 -23 -25 -23 -37 -1 -22 -41 -101 -123
-241 -25 -44 -58 -111 -72 -149 l-26 -68 85 3 c78 4 87 6 116 34 17 17 52 68
77 115 117 218 270 477 295 501 23 23 38 27 111 31 101 7 123 17 148 71 37 82
57 77 -285 77 l-305 0 -25 -32z"/>
<path d="M13020 4879 c-32 -13 -78 -56 -96 -91 -8 -15 -14 -51 -14 -81 0 -53
-1 -56 -47 -93 -27 -21 -78 -67 -115 -101 -37 -35 -72 -63 -78 -63 -7 0 -9 17
-5 48 15 113 32 287 29 291 -2 2 -19 1 -37 -3 -53 -10 -124 -80 -202 -201 -40
-61 -87 -123 -106 -138 -68 -53 -70 -56 -67 -95 3 -35 5 -37 33 -34 51 6 88
35 130 102 43 69 125 160 144 160 9 0 10 -33 5 -135 -6 -117 -5 -135 9 -141
31 -11 89 29 154 108 36 43 122 132 191 198 l127 120 103 0 c75 0 102 -3 102
-12 0 -13 -37 -103 -105 -258 -23 -53 -39 -107 -42 -145 -6 -60 -6 -60 15 -42
11 10 46 65 77 123 32 57 83 140 115 184 35 49 63 100 71 129 l12 48 76 6 c42
4 127 9 189 13 75 5 112 11 112 19 0 9 -20 35 -43 57 -1 1 -137 4 -301 7 -227
5 -300 9 -304 19 -5 15 -95 15 -132 1z"/>
<path d="M11505 4870 c-32 -6 -55 -17 -67 -32 -35 -43 -115 -163 -139 -208
-13 -25 -62 -94 -108 -155 -100 -130 -111 -149 -111 -195 0 -84 77 -12 173
162 30 54 34 58 69 58 36 0 38 -2 88 -90 72 -125 148 -200 205 -200 22 0 -8
81 -55 150 -15 21 -46 168 -38 175 2 1 30 16 64 34 34 18 78 50 99 71 31 32
39 48 43 89 2 27 2 60 -2 73 -14 54 -117 86 -221 68z m95 -102 c-1 -39 -23
-82 -67 -131 -27 -31 -39 -37 -92 -43 -44 -5 -61 -3 -61 5 0 25 50 108 87 142
48 46 71 58 106 59 24 0 27 -4 27 -32z"/>
<path d="M16094 4841 c-5 -31 -12 -42 -35 -52 -33 -13 -143 -158 -154 -202 -5
-18 -23 -36 -59 -56 -44 -26 -56 -41 -91 -108 -27 -53 -51 -85 -75 -101 -38
-25 -59 -56 -60 -86 0 -16 6 -18 57 -14 61 5 58 3 126 98 18 25 54 60 81 78
46 31 52 32 146 32 l98 0 23 -76 c21 -72 59 -134 80 -134 5 0 9 21 9 48 0 26
3 77 6 113 7 65 7 66 53 94 l46 28 -46 20 -47 20 -4 111 c-3 93 -8 120 -31
169 l-26 57 -45 0 c-45 0 -46 0 -52 -39z"/>
<path d="M16803 4869 c-23 -4 -55 -15 -72 -24 -37 -18 -104 -101 -158 -194
-21 -36 -59 -89 -84 -117 -90 -99 -139 -189 -139 -254 0 -34 5 -38 34 -33 17
4 29 17 40 46 15 39 72 132 114 186 16 19 24 22 51 16 24 -5 46 -26 100 -98
38 -51 82 -106 98 -123 35 -37 81 -69 89 -61 3 3 -13 51 -35 107 -23 56 -44
127 -47 158 l-6 57 77 40 c55 28 86 52 107 82 37 51 48 121 25 156 -30 46
-116 70 -194 56z m67 -94 c0 -85 -73 -151 -187 -170 l-43 -7 11 30 c5 16 38
61 71 101 59 68 64 71 105 71 39 0 43 -2 43 -25z"/>
<path d="M14274 4818 c-26 -24 -67 -72 -92 -108 -67 -95 -89 -121 -141 -163
-53 -45 -87 -95 -102 -152 -8 -32 -20 -47 -54 -68 -24 -16 -46 -36 -49 -45 -2
-9 -7 -27 -11 -39 -5 -19 -2 -23 16 -23 50 0 102 24 133 63 111 139 140 156
259 157 104 0 113 -6 121 -77 10 -80 13 -89 42 -108 24 -16 25 -15 41 22 11
28 14 55 10 101 l-6 62 39 25 c46 29 55 65 18 65 -61 1 -65 6 -72 98 -4 48 -9
120 -13 160 l-6 72 -44 0 c-37 0 -50 -6 -89 -42z"/>
<path d="M11960 4833 c-33 -12 -59 -48 -71 -97 -6 -28 -29 -87 -50 -131 -46
-98 -73 -196 -65 -240 4 -17 18 -43 32 -56 22 -21 37 -24 113 -27 73 -3 91 -1
105 14 22 21 14 27 -75 54 -82 25 -100 44 -102 107 l-2 48 85 8 c116 11 157
23 176 53 9 13 14 28 10 31 -3 4 -34 8 -69 11 -61 3 -117 18 -117 31 0 11 15
27 40 44 19 13 47 17 130 17 94 0 112 3 158 26 32 16 61 24 74 21 26 -7 118
11 118 23 0 23 -101 43 -240 47 -80 3 -149 9 -154 14 -11 10 -72 11 -96 2z"/>
<path d="M15405 4801 c-66 -16 -146 -40 -177 -54 -74 -33 -150 -105 -176 -165
-22 -52 -37 -151 -25 -168 15 -20 119 -93 153 -108 128 -52 316 -6 409 101 37
42 52 73 34 73 -4 0 -64 -22 -133 -50 -144 -56 -217 -75 -264 -66 -67 13 -101
86 -76 162 17 50 92 129 155 162 46 25 58 27 159 25 83 -2 116 1 142 13 19 9
34 20 34 25 0 20 -57 69 -85 74 -16 2 -84 -9 -150 -24z"/>
<path d="M8129 3479 c-106 -17 -208 -89 -257 -184 -25 -46 -27 -60 -27 -165 0
-133 15 -178 84 -253 110 -119 310 -121 430 -5 137 131 141 379 10 522 -67 74
-144 101 -240 85z m91 -131 c35 -18 51 -35 73 -77 23 -47 27 -67 27 -140 0
-77 -3 -92 -30 -137 -31 -55 -90 -94 -144 -94 -47 0 -103 36 -132 87 -23 38
-29 62 -32 130 -6 104 13 158 70 207 59 51 102 57 168 24z"/>
<path d="M12953 3473 c-64 -22 -137 -93 -177 -173 -98 -197 -54 -391 109 -471
60 -29 78 -33 173 -37 124 -4 139 2 144 63 l3 40 -60 8 c-33 4 -79 10 -101 13
-147 18 -229 190 -158 333 37 74 79 99 191 113 l91 11 6 36 c7 41 -6 55 -64
71 -49 14 -107 11 -157 -7z"/>
<path d="M15335 3484 c-164 -25 -239 -103 -221 -228 11 -75 40 -105 151 -161
54 -27 106 -61 116 -75 25 -37 32 -76 15 -93 -21 -21 -109 -29 -196 -18 -41 5
-76 8 -78 6 -12 -12 -20 -81 -10 -92 22 -26 118 -46 197 -40 128 10 220 73
237 163 20 107 -30 183 -163 246 -89 43 -128 75 -136 114 -6 35 33 53 136 61
109 8 127 15 127 51 0 16 -9 37 -19 46 -20 18 -101 28 -156 20z"/>
<path d="M5532 3466 c-145 -47 -231 -192 -219 -367 16 -232 197 -365 404 -295
69 23 145 92 180 164 26 52 28 66 28 172 0 103 -3 121 -26 171 -29 61 -81 119
-132 146 -43 22 -178 27 -235 9z m180 -127 c15 -11 39 -44 54 -75 35 -71 38
-185 7 -256 -47 -104 -163 -139 -243 -71 -51 43 -73 97 -78 193 -3 75 -1 90
20 129 52 97 163 134 240 80z"/>
<path d="M6267 3470 c-61 -16 -110 -45 -156 -95 -154 -167 -117 -456 71 -551
59 -30 142 -42 226 -32 81 9 92 18 92 79 l0 49 -87 0 c-107 0 -153 12 -198 51
-43 38 -59 86 -59 179 0 147 58 200 218 200 l87 0 -7 58 c-3 31 -7 58 -8 59
-7 8 -148 10 -179 3z"/>
<path d="M8633 3473 l-63 -4 0 -329 c0 -315 1 -330 19 -330 10 0 39 -3 65 -6
l46 -7 0 132 0 131 41 0 c52 0 103 -24 125 -58 10 -15 29 -65 44 -112 l26 -85
72 -3 c44 -2 72 1 72 7 0 6 -13 47 -30 92 -32 87 -74 160 -115 199 l-25 23 46
49 c70 75 90 139 60 196 -20 38 -55 68 -99 87 -40 17 -178 25 -284 18z m184
-118 l62 -7 6 -42 c13 -85 -37 -136 -132 -136 l-53 0 0 101 0 102 28 -6 c15
-3 55 -9 89 -12z"/>
<path d="M10705 3471 l-60 -6 -3 -326 -2 -326 31 -7 c51 -10 311 -7 352 5 35
9 37 12 37 48 0 28 -5 41 -17 46 -10 4 -73 10 -140 13 l-122 4 -3 83 -3 82 90
6 c118 7 125 10 125 57 0 46 -3 48 -125 56 l-95 7 0 73 0 74 136 0 135 0 -3
48 c-3 47 -3 47 -48 59 -47 12 -182 14 -285 4z"/>
<path d="M14630 3463 c-169 -59 -258 -233 -215 -418 51 -219 233 -318 426
-229 30 14 67 37 83 52 166 156 129 489 -65 586 -63 31 -156 35 -229 9z m143
-107 c76 -32 117 -113 117 -231 0 -98 -35 -167 -100 -203 -112 -59 -226 23
-245 178 -13 110 30 210 107 249 50 25 76 26 121 7z"/>
<path d="M4867 3464 c-4 -4 -7 -153 -7 -330 l0 -323 205 -3 205 -3 0 53 0 52
-141 0 -141 0 3 278 3 277 -60 3 c-33 2 -63 0 -67 -4z"/>
<path d="M6755 3453 c-28 -72 -226 -636 -223 -638 2 -2 32 -4 67 -6 l63 -4 32
90 31 90 115 0 114 0 21 -90 20 -90 73 -3 c54 -2 72 0 72 10 0 7 -45 157 -99
333 l-99 320 -90 3 c-78 2 -90 0 -97 -15z m124 -233 c19 -66 32 -122 29 -125
-2 -3 -39 -2 -80 1 l-76 7 41 118 c23 66 44 119 47 119 3 0 20 -54 39 -120z"/>
<path d="M7225 3298 c-3 -95 -5 -245 -3 -333 l3 -160 75 -3 c171 -7 326 39
390 116 64 77 89 245 54 363 -20 68 -81 130 -150 153 -63 21 -178 35 -280 36
l-82 0 -7 -172z m306 31 c64 -36 89 -90 89 -194 0 -143 -57 -207 -196 -221
l-61 -7 -6 153 c-4 84 -7 187 -7 228 l0 75 69 -5 c47 -4 82 -13 112 -29z"/>
<path d="M9210 3149 c-63 -177 -116 -328 -118 -335 -3 -11 13 -14 67 -14 l70
0 29 93 28 92 107 3 106 3 15 -28 c13 -25 24 -64 40 -133 5 -25 7 -26 78 -22
40 2 74 6 76 7 2 2 -43 147 -99 323 l-102 320 -45 6 c-25 3 -66 6 -91 6 l-46
0 -115 -321z m233 74 l34 -123 -83 0 -83 0 30 83 c17 45 38 101 46 125 8 24
17 42 18 40 2 -2 19 -58 38 -125z"/>
<path d="M10006 3146 c-4 -179 -4 -331 -1 -336 3 -6 45 -10 93 -10 178 1 310
43 373 120 83 100 92 327 17 432 -25 36 -93 76 -160 94 -29 8 -112 17 -184 21
l-131 6 -7 -327z m250 199 c113 -33 173 -144 144 -263 -14 -59 -63 -122 -114
-146 -38 -18 -129 -26 -143 -13 -4 5 -9 105 -12 223 l-3 214 39 0 c22 0 62 -7
89 -15z"/>
<path d="M11330 3443 c0 -43 41 -186 122 -423 l73 -215 56 -3 57 -3 29 78
c147 385 215 575 209 581 -12 12 -113 7 -129 -6 -8 -7 -22 -50 -31 -96 -13
-65 -58 -228 -100 -361 -7 -23 -39 65 -86 237 -27 101 -50 191 -50 201 0 23
-38 37 -101 37 -47 0 -49 -1 -49 -27z"/>
<path d="M11957 3244 c-4 -125 -7 -274 -7 -330 l0 -103 37 -7 c68 -13 305 -10
346 4 35 13 37 16 37 58 l0 44 -140 0 -140 0 0 95 0 95 105 0 105 0 0 50 0 50
-104 0 -103 0 -7 31 c-3 17 -6 53 -6 80 l0 49 136 0 135 0 -3 53 -3 52 -191 3
-191 2 -6 -226z"/>
<path d="M12499 3443 c-19 -48 -33 -366 -23 -508 l9 -130 61 -3 61 -3 6 98
c15 214 4 457 -24 540 -9 29 -15 33 -45 33 -28 0 -36 -5 -45 -27z"/>
<path d="M13296 3454 c-3 -8 -9 -77 -12 -152 -10 -227 21 -369 100 -448 48
-49 101 -67 196 -68 116 0 184 58 222 191 20 74 43 445 29 472 -11 18 -83 24
-105 8 -29 -22 -36 -82 -24 -234 12 -158 4 -230 -33 -278 -27 -33 -70 -55
-110 -55 -41 0 -103 60 -118 115 -6 23 -11 123 -11 230 0 105 -3 200 -6 213
-6 20 -13 22 -64 22 -43 0 -59 -4 -64 -16z"/>
<path d="M13960 3134 l0 -336 183 4 c207 4 227 9 227 63 0 31 -3 35 -37 42
-21 4 -84 7 -140 6 l-103 -1 0 279 0 279 -65 0 -65 0 0 -336z"/>
</g>
</svg>
